<svg xmlns="http://www.w3.org/2000/svg" viewBox="0 0 128 128">
  <defs>
    <linearGradient id="grad1" x1="0%" y1="0%" x2="100%" y2="100%">
      <stop offset="0%" style="stop-color:#667eea;stop-opacity:1" />
      <stop offset="100%" style="stop-color:#764ba2;stop-opacity:1" />
    </linearGradient>
  </defs>
  <rect width="128" height="128" rx="16" fill="url(#grad1)"/>
  <g fill="#ffffff">
    <!-- Building/Account icon -->
    <rect x="24" y="48" width="32" height="56" rx="2"/>
    <rect x="28" y="52" width="8" height="8" rx="1" fill="#667eea"/>
    <rect x="40" y="52" width="8" height="8" rx="1" fill="#667eea"/>
    <rect x="28" y="64" width="8" height="8" rx="1" fill="#667eea"/>
    <rect x="40" y="64" width="8" height="8" rx="1" fill="#667eea"/>
    <rect x="28" y="76" width="8" height="8" rx="1" fill="#667eea"/>
    <rect x="40" y="76" width="8" height="8" rx="1" fill="#667eea"/>
    <rect x="34" y="88" width="12" height="16" rx="1" fill="#667eea"/>
    <!-- Arrow/Connection -->
    <path d="M62 76 L78 76 L78 68 L94 80 L78 92 L78 84 L62 84 Z"/>
    <!-- Cloud/Provider icon -->
    <ellipse cx="100" cy="72" rx="20" ry="12"/>
    <ellipse cx="88" cy="76" rx="12" ry="8"/>
    <ellipse cx="108" cy="78" rx="10" ry="6"/>
    <rect x="80" y="72" width="40" height="20" rx="4"/>
    <!-- Multi-tenant symbol -->
    <circle cx="40" cy="32" r="8"/>
    <circle cx="64" cy="24" r="6"/>
    <circle cx="88" cy="32" r="8"/>
    <path d="M40 32 Q64 20 88 32" stroke="#ffffff" stroke-width="2" fill="none"/>
  </g>
</svg>
