<svg width="240" height="64" viewBox="0 0 240 64" fill="none" xmlns="http://www.w3.org/2000/svg">
<g transform="translate(16, 12)">
<path d="M0 32V16L16 4L32 16V32" stroke="black" stroke-width="4" stroke-linecap="round" stroke-linejoin="round"/>
<path d="M16 22V32" stroke="black" stroke-width="4" stroke-linecap="round"/>
<circle cx="16" cy="13" r="5" fill="#FFD400"/>
</g>
<rect x="70" y="20" width="4" height="24" rx="2" fill="black"/>
<rect x="60" y="20" width="24" height="4" rx="2" fill="black"/>
<path d="M94 20H110C114.418 20 118 23.5817 118 28V28C118 30.287 117.062 32.3601 115.532 33.8483L114 35.3397C112.541 36.7597 111.742 38.7379 111.834 40.7719L112 44" stroke="black" stroke-width="4" stroke-linecap="round"/>
<rect x="94" y="20" width="4" height="24" rx="2" fill="black"/>
<path d="M130 20L136 44L142 26L148 44L154 20" stroke="black" stroke-width="4" stroke-linecap="round" stroke-linejoin="round"/>
<path d="M170 44L182 20L194 44" stroke="black" stroke-width="4" stroke-linecap="round" stroke-linejoin="round"/>
<rect x="174" y="36" width="16" height="4" rx="2" fill="black"/>
</svg>
