<svg width="1200" height="630" viewBox="0 0 1200 630" fill="none" xmlns="http://www.w3.org/2000/svg">
<rect width="1200" height="630" fill="white"/>
<defs>
<pattern id="smallGrid" width="60" height="60" patternUnits="userSpaceOnUse">
<path d="M 60 0 L 0 0 0 60" fill="none" stroke="black" stroke-width="1" stroke-opacity="0.05"/>
</pattern>
</defs>
<rect x="600" y="0" width="600" height="630" fill="url(#smallGrid)"/>

<g transform="translate(100, 180)">
    <rect x="0" y="0" width="80" height="12" rx="6" fill="#FFD400"/>
    <rect x="0" y="40" width="400" height="40" rx="8" fill="black"/>
    <rect x="0" y="90" width="320" height="40" rx="8" fill="black"/>
    <rect x="0" y="160" width="360" height="16" rx="4" fill="#6B7280"/>
    <rect x="0" y="184" width="280" height="16" rx="4" fill="#6B7280"/>
</g>

<g transform="translate(650, 100) scale(0.7)">
    <rect x="10" y="10" width="580" height="400" rx="16" fill="black" fill-opacity="0.08"/>
    <rect x="0" y="0" width="580" height="400" rx="16" fill="white" stroke="black" stroke-opacity="0.1"/>
    <rect x="1" y="1" width="578" height="48" rx="16" fill="black"/>
    <circle cx="30" cy="24" r="6" fill="#FFD400"/>
    <g transform="translate(20, 70)">
        <rect x="0" y="0" width="170" height="310" rx="12" fill="#F5F5F5" stroke="black" stroke-opacity="0.05"/>
        <rect x="10" y="10" width="60" height="8" rx="4" fill="#6B7280" fill-opacity="0.5"/>
        <rect x="10" y="260" width="150" height="32" rx="16" fill="#FFD400"/>
    </g>
    <g transform="translate(205, 70)">
        <rect x="0" y="0" width="170" height="310" rx="12" fill="white" stroke="black" stroke-opacity="0.1"/>
        <rect x="10" y="10" width="60" height="8" rx="4" fill="#6B7280" fill-opacity="0.5"/>
        <circle cx="85" cy="140" r="60" stroke="#F5F5F5" stroke-width="16"/>
        <circle cx="85" cy="140" r="60" stroke="#FFD400" stroke-width="16" stroke-dasharray="250 376" transform="rotate(-90 85 140)"/>
    </g>
    <g transform="translate(390, 70)">
        <rect x="0" y="0" width="170" height="310" rx="12" fill="white" stroke="black" stroke-opacity="0.1"/>
        <rect x="10" y="10" width="60" height="8" rx="4" fill="#6B7280" fill-opacity="0.5"/>
        <circle cx="20" cy="50" r="12" fill="#F5F5F5"/>
        <rect x="40" y="40" width="120" height="24" rx="8" fill="#F5F5F5"/>
        <circle cx="20" cy="90" r="12" fill="#FFD400" fill-opacity="0.3"/>
        <rect x="40" y="80" width="120" height="24" rx="8" fill="white" stroke="#FFD400" stroke-width="1"/>
    </g>
</g>
</svg>
